# xmcd
#
# Track frame offsets:
#	182
#	8957
#	24060
#	36462
#	48730
#	64130
#	72172
#	81267
#	95580
#	108045
#	128152
#	146475
#	157217
#	174385
#	191030
#	206507
#
# Disc length: 2957 seconds
#
# Revision: 3
# Processed by: cddbd v1.5.2PL0 Copyright (c) Steve Scherf et al.
# Submitted via: audiograbber 1.83.01
#
DISCID=df0b8b10
DTITLE=Number Nine - Smokin' Country Rockin' Blues
DYEAR=1995
DGENRE=Blues
TTITLE0=01 - Swinging Daddy
TTITLE1=02 - Tables have turned
TTITLE2=03 - Wanted Man
TTITLE3=04 - Stay Away
TTITLE4=05 - She's a Sin
TTITLE5=06 - Break for the Border
TTITLE6=07 - I love you just the same 
TTITLE7=08 - Where's Robin?
TTITLE8=09 - Time
TTITLE9=10 - Country Boy
TTITLE10=11 - One monkey don't stop no show
TTITLE11=12 - I'm hanging up my heart for you
TTITLE12=13 - High Sheriff of Calhoun Parish
TTITLE13=14 - Lay Lady Lay
TTITLE14=15 - You can have her
TTITLE15=16 - On the road again
EXTD=
EXTT0=
EXTT1=
EXTT2=
EXTT3=
EXTT4=
EXTT5=
EXTT6=
EXTT7=
EXTT8=
EXTT9=
EXTT10=
EXTT11=
EXTT12=
EXTT13=
EXTT14=
EXTT15=
PLAYORDER=
